<svg width="21" height="24" viewBox="0 0 21 24" fill="none" xmlns="http://www.w3.org/2000/svg">
<path d="M9.76496 11.6926L8.22496 9.86556L6.33496 11.9446L8.25996 14.2316C8.44879 14.46 8.67559 14.6432 8.9271 14.7702C9.17861 14.8973 9.44977 14.9657 9.72471 14.9716H9.75709C10.3021 14.9698 10.8246 14.7226 11.2113 14.2836L15.6047 9.26056L13.748 7.14056L9.76496 11.6926Z" fill="url(#paint0_linear_345_2185)"/>
<path d="M10.4318 23.9994L9.96712 23.7624C9.63112 23.5884 1.75 19.4994 1.75 11.9994V5.52442C1.75005 4.8947 1.92349 4.28096 2.24574 3.77016C2.568 3.25936 3.02273 2.87741 3.5455 2.67842L10.5 0.0294189L17.4554 2.67942C17.9783 2.87773 18.4332 3.25941 18.7553 3.77017C19.0775 4.28093 19.2506 4.89477 19.25 5.52442V11.9994C19.25 20.5384 11.2551 23.6814 10.9148 23.8114L10.4318 23.9994ZM10.5 3.19142L4.375 5.52442V11.9994C4.375 16.6694 9.051 19.8464 10.5674 20.7524C12.0916 20.0254 16.625 17.4074 16.625 11.9994V5.52442L10.5 3.19142Z" fill="url(#paint1_linear_345_2185)"/>
<defs>
<linearGradient id="paint0_linear_345_2185" x1="10.9698" y1="7.14056" x2="10.9698" y2="14.9716" gradientUnits="userSpaceOnUse">
<stop stop-color="#8C0368"/>
<stop offset="1" stop-color="#1772B6"/>
</linearGradient>
<linearGradient id="paint1_linear_345_2185" x1="10.5" y1="0.0294189" x2="10.5" y2="23.9994" gradientUnits="userSpaceOnUse">
<stop stop-color="#8C0368"/>
<stop offset="1" stop-color="#1772B6"/>
</linearGradient>
</defs>
</svg>
