<svg width="24" height="26" viewBox="0 0 24 26" fill="none" xmlns="http://www.w3.org/2000/svg">
<path d="M12.0264 1.05957L15.2314 8.19141L15.4473 8.67188L15.9668 8.76562L22.9307 10.0195C22.9269 10.0179 22.9293 10.0174 22.9365 10.0244C22.9485 10.036 22.9707 10.0658 22.9863 10.1201C23.0209 10.2407 22.9831 10.3467 22.9453 10.3896H22.9443L17.9541 16.0537L17.6504 16.3984L17.7139 16.8535L18.8174 24.7627C18.8324 24.8768 18.7927 24.9522 18.7656 24.9854L12.5039 21.374L12.0039 21.0859L11.5049 21.374L5.2373 24.9854C5.21046 24.9514 5.17047 24.8728 5.18555 24.7627L6.28516 16.8525L6.34863 16.3984L6.04492 16.0537L1.05859 10.3936C1.01553 10.3426 0.980403 10.2328 1.0127 10.1201C1.02735 10.0691 1.04989 10.0395 1.06348 10.0264C1.06706 10.0229 1.06968 10.0207 1.07129 10.0195L8.03711 8.76562L8.55566 8.67188L8.77148 8.19141L11.9814 1.05762C11.9884 1.04256 11.9972 1.03159 12.0039 1.02246L12.0264 1.05957Z" stroke="url(#paint0_linear_345_2197)" stroke-width="2"/>
<defs>
<linearGradient id="paint0_linear_345_2197" x1="12" y1="0" x2="12" y2="26" gradientUnits="userSpaceOnUse">
<stop stop-color="#8C0368"/>
<stop offset="1" stop-color="#1772B6"/>
</linearGradient>
</defs>
</svg>
