<svg width="55" height="55" viewBox="0 0 55 55" fill="none" xmlns="http://www.w3.org/2000/svg">
<g clip-path="url(#clip0_713_1001)">
<path d="M22.9167 27.4998C27.9793 27.4998 32.0833 23.3958 32.0833 18.3332C32.0833 13.2706 27.9793 9.1665 22.9167 9.1665C17.8541 9.1665 13.75 13.2706 13.75 18.3332C13.75 23.3958 17.8541 27.4998 22.9167 27.4998Z" fill="#EA3EF7"/>
<path d="M24.4518 29.8373C23.9476 29.8144 23.4434 29.7915 22.9163 29.7915C17.3705 29.7915 12.1913 31.3269 7.76842 33.9623C5.75176 35.154 4.58301 37.3998 4.58301 39.7603V45.8332H25.8038C23.9934 43.2436 22.9163 40.0811 22.9163 36.6665C22.9163 34.2144 23.4893 31.9228 24.4518 29.8373Z" fill="#EA3EF7"/>
<path d="M47.5521 36.6663C47.5521 36.1622 47.4834 35.7038 47.4146 35.2226L50.0271 32.908L47.7355 28.9434L44.4126 30.0663C43.6792 29.4476 42.8542 28.9663 41.9376 28.6226L41.2501 25.208H36.6667L35.9792 28.6226C35.0626 28.9663 34.2376 29.4476 33.5042 30.0663L30.1813 28.9434L27.8896 32.908L30.5021 35.2226C30.4334 35.7038 30.3646 36.1622 30.3646 36.6663C30.3646 37.1705 30.4334 37.6288 30.5021 38.1101L27.8896 40.4247L30.1813 44.3893L33.5042 43.2663C34.2376 43.8851 35.0626 44.3663 35.9792 44.7101L36.6667 48.1247H41.2501L41.9376 44.7101C42.8542 44.3663 43.6792 43.8851 44.4126 43.2663L47.7355 44.3893L50.0271 40.4247L47.4146 38.1101C47.4834 37.6288 47.5521 37.1705 47.5521 36.6663ZM38.9584 41.2497C36.4376 41.2497 34.3751 39.1872 34.3751 36.6663C34.3751 34.1455 36.4376 32.083 38.9584 32.083C41.4792 32.083 43.5417 34.1455 43.5417 36.6663C43.5417 39.1872 41.4792 41.2497 38.9584 41.2497Z" fill="#EA3EF7"/>
</g>
<defs>
<clipPath id="clip0_713_1001">
<rect width="55" height="55" fill="white"/>
</clipPath>
</defs>
</svg>
