<svg width="24" height="24" viewBox="0 0 24 24" fill="none" xmlns="http://www.w3.org/2000/svg">
<g clip-path="url(#clip0_345_2191)">
<path d="M20 7.99997C20.0028 6.70482 19.6912 5.42836 19.0918 4.28025C18.4924 3.13213 17.6233 2.14671 16.559 1.40864C15.4947 0.670565 14.2672 0.201918 12.9818 0.0429644C11.6965 -0.115989 10.3918 0.0395022 9.17976 0.496079C7.96777 0.952656 6.88474 1.69667 6.02374 2.66418C5.16275 3.6317 4.54952 4.79379 4.23676 6.0506C3.92401 7.30741 3.92106 8.62137 4.22819 9.87958C4.53531 11.1378 5.14333 12.3026 5.99998 13.274V21.5C5.99997 21.9709 6.13299 22.4323 6.38371 22.8309C6.63444 23.2296 6.99266 23.5493 7.41714 23.7533C7.84162 23.9573 8.31509 24.0372 8.78301 23.9839C9.25093 23.9306 9.69427 23.7462 10.062 23.452L12 21.9L13.938 23.45C14.3056 23.7441 14.7487 23.9285 15.2165 23.9819C15.6842 24.0353 16.1575 23.9555 16.5819 23.7518C17.0063 23.548 17.3646 23.2286 17.6154 22.8302C17.8663 22.4319 17.9996 21.9707 18 21.5V13.274C19.2883 11.8192 19.9997 9.9432 20 7.99997ZM12 1.99997C13.1867 1.99997 14.3467 2.35186 15.3334 3.01115C16.3201 3.67044 17.0891 4.60751 17.5433 5.70387C17.9974 6.80022 18.1162 8.00662 17.8847 9.17051C17.6532 10.3344 17.0817 11.4035 16.2426 12.2426C15.4035 13.0817 14.3344 13.6532 13.1705 13.8847C12.0066 14.1162 10.8002 13.9974 9.70388 13.5432C8.60752 13.0891 7.67045 12.3201 7.01116 11.3334C6.35187 10.3467 5.99998 9.18665 5.99998 7.99997C6.00157 6.40915 6.63422 4.88395 7.75909 3.75908C8.88397 2.63421 10.4092 2.00155 12 1.99997ZM15.717 21.948C15.6324 21.9899 15.5375 22.0065 15.4436 21.9959C15.3498 21.9852 15.2611 21.9478 15.188 21.888L12 19.337L8.81298 21.888C8.73961 21.9469 8.6511 21.9839 8.55763 21.9947C8.46417 22.0056 8.36954 21.9898 8.28462 21.9493C8.19971 21.9088 8.12795 21.8451 8.07759 21.7656C8.02724 21.6861 8.00034 21.5941 7.99998 21.5V14.918C9.21395 15.6265 10.5944 15.9999 12 15.9999C13.4056 15.9999 14.786 15.6265 16 14.918V21.5C16.0011 21.594 15.975 21.6863 15.9247 21.7658C15.8745 21.8453 15.8024 21.9086 15.717 21.948Z" fill="url(#paint0_linear_345_2191)"/>
</g>
<defs>
<linearGradient id="paint0_linear_345_2191" x1="12" y1="-0.0175171" x2="12" y2="24" gradientUnits="userSpaceOnUse">
<stop offset="0.00480769" stop-color="#83104F"/>
<stop offset="1" stop-color="#1772B6"/>
</linearGradient>
<clipPath id="clip0_345_2191">
<rect width="24" height="24" fill="white"/>
</clipPath>
</defs>
</svg>
